<svg xmlns="http://www.w3.org/2000/svg" xmlns:xlink="http://www.w3.org/1999/xlink"><defs>
        <clipPath id="clip0_1_37">
            <path d="M0 0h19v18H0z"/>
        </clipPath>
    
        <clipPath id="clip0_1_35">
            <path d="M0 0h14v14H0z"/>
        </clipPath>
    
        <clipPath id="clip0">
            <path d="M0 0h35v35H0z"/>
        </clipPath>
    </defs><symbol id="arrow-link">
    <path d="M1 6.084h13.68m0 0L9.816 1m4.864 5.084L9.816 11.17" stroke-width="2" stroke-linecap="round"/>
</symbol><symbol id="balance">
    <path fill-rule="evenodd" clip-rule="evenodd" d="M17.473 5.495h-.208L15.138.325a.527.527 0 00-.685-.286l-3.646 1.418a2.231 2.231 0 00-1.28-.843 3.027 3.027 0 00-1.054 0C7.5.844 6.778 1.698 6.778 2.712c0 .103.008.205.023.304L3.156 4.433a.52.52 0 00-.294.286L.735 9.889H.527a.52.52 0 00-.527.513c0 1.495 1.25 2.71 2.787 2.71h1.13c1.536 0 2.786-1.215 2.786-2.71a.52.52 0 00-.527-.513h-.208l-1.93-4.694 3.155-1.227a2.23 2.23 0 001.28.843v8.13H7.87c-1.536 0-2.771 1.052-2.771 2.546a.52.52 0 00.527.513h6.778c.291 0 .528-.197.528-.351v-.162c0-1.494-1.266-2.547-2.802-2.547h-.603V4.81c.972-.23 1.695-1.083 1.695-2.098 0-.103-.008-.204-.022-.303l2.502-.973-1.67 4.06h-.208a.52.52 0 00-.527.512c0 1.494 1.25 2.71 2.787 2.71h1.13C16.75 8.718 18 7.502 18 6.008a.52.52 0 00-.527-.513zM2.787 12.086h1.13a1.73 1.73 0 001.65-1.17h-.003l-.002-.001H1.137a1.73 1.73 0 001.65 1.171zM1.87 9.89h2.961l-1.479-3.6-1.48 3.6zm4.364 5.085h5.56c-.223-.678-.894-1.008-1.665-1.008H7.87c-.771 0-1.411.33-1.635 1.008zM7.833 2.712c0 .626.523 1.135 1.167 1.135s1.167-.509 1.167-1.135S9.643 1.577 9 1.577c-.644 0-1.167.51-1.167 1.135zm8.296 2.783l-1.48-3.599-1.481 3.6h2.96zm-2.045 2.197h1.13a1.73 1.73 0 001.649-1.17l-.004-.001h-4.425a1.73 1.73 0 001.65 1.171z"/>
</symbol><symbol id="basket">
    <g clip-path="url(#clip0_1_37)" fill-rule="evenodd" clip-rule="evenodd">
        <path d="M8.519 14.804c.878 0 1.59.716 1.59 1.6 0 .883-.712 1.599-1.59 1.599a1.595 1.595 0 01-1.591-1.6c0-.883.712-1.599 1.59-1.599zm-.337 1.6a.337.337 0 11.575.24.337.337 0 01-.575-.24zm7.761-1.6c.878 0 1.59.716 1.59 1.6 0 .883-.712 1.599-1.59 1.599a1.595 1.595 0 01-1.591-1.6c0-.883.712-1.599 1.59-1.599zm-.337 1.6a.337.337 0 11.575.24.337.337 0 01-.575-.24zm-1.459-5.103a5.391 5.391 0 004.4-3.569c.847-2.002.358-2.949-.223-3.216l-6.285-.817-8.231-1.207-.769-.56A1.566 1.566 0 002.822.693 1.537 1.537 0 00.682.269 1.555 1.555 0 00.261 2.42a1.535 1.535 0 002.007.504l.784.572 3.235 8.006a1.81 1.81 0 00-.274.423c-.561 1.195.32 2.55 1.627 2.55h9.823a.629.629 0 00.627-.63c0-.348-.28-.63-.627-.63H7.64a.524.524 0 01-.467-.255.52.52 0 01.317-.783l6.657-.876zM12.355 5.03l-3.419-.513.62 2.15 3.153.088-.142-.821s-.122-.574-.212-.904zM1.784 1.392c-.139-.208-.477-.156-.528.107a.292.292 0 00.449.301.3.3 0 00.079-.408zm6.991 9.352c.211-.03.422-.059.63-.086L8.61 7.895l-2.456-.068 1.25 3.092c.452-.046.913-.11 1.37-.175h.001zm1.146-2.812l.738 2.561 2.637-.347-.369-2.13-3.006-.084zM5.64 6.556l2.604.073-.667-2.313-3.022-.443L5.64 6.556zm8.11-1.387l.204 1.585s2.168.142 2.887.142c.355-.446.754-1.369-.096-1.446-.25-.023-.558-.048-.882-.075-.778-.063-1.659-.135-2.113-.206zm.781 4.778l-.385-1.931 2.792.055c-.551.83-1.422 1.61-2.407 1.876z"/>
    </g>
    
</symbol><symbol id="burger">
    <path d="M1 1h14M1 7h14M1 13h14" stroke-width="2" stroke-linecap="round" stroke-linejoin="round"/>
</symbol><symbol id="hamburger-mob">
    <path d="M41 20H0v4h41v-4zm0-10H0v4h41v-4zm0-10H0v4h41V0z" fill-opacity=".8"/>
</symbol><symbol id="lupa">
    <path d="M19.054 16.56l-4.535-4.534a7.379 7.379 0 001.078-3.852c0-4.1-3.553-7.653-7.654-7.653A7.422 7.422 0 00.52 7.944c0 4.1 3.553 7.653 7.652 7.653a7.38 7.38 0 003.738-1.013l4.56 4.561a1.144 1.144 0 001.614 0l1.132-1.131c.445-.446.283-1.008-.162-1.454zM2.804 7.944a5.138 5.138 0 015.14-5.14c2.838 0 5.368 2.53 5.368 5.37a5.14 5.14 0 01-5.14 5.14c-2.839-.002-5.367-2.532-5.367-5.37z"/>
</symbol><symbol id="menu-close">
    <rect width="20" height="2" rx="1" transform="rotate(45 .536 1.778)"/>
    <rect width="20" height="2" rx="1" transform="rotate(-45 17.278 6.571)"/>
</symbol><symbol id="star">
    <g clip-path="url(#clip0_1_35)">
        <path d="M3.252 8.961l-.74 4.53c-.058.36.326.63.644.454L7 11.821l3.844 2.125a.438.438 0 00.644-.454l-.74-4.53 3.127-3.205a.438.438 0 00-.247-.738l-4.303-.657-1.93-4.11c-.144-.306-.647-.306-.791 0l-1.929 4.11-4.303.657a.437.437 0 00-.247.738l3.127 3.205z"/>
    </g>
    
</symbol><symbol id="tel">
    <g clip-path="url(#clip0)">
        <path d="M33.423 25.495l-5.19-4.413a.697.697 0 00-.076-.056 3.397 3.397 0 00-4.251.466l-2.83 2.83a.682.682 0 01-.745.148c-3.195-1.322-5.82-3.311-7.801-5.914-1.511-1.984-2.056-3.56-2.128-3.783a.685.685 0 00-.041-.14.68.68 0 01.148-.745l2.83-2.83a3.397 3.397 0 00.444-4.284l-3.748-5.208A3.418 3.418 0 004.745 1l-.566.567-.001.001-2.023 2.023C-.257 6.005-.652 9.63 1.014 14.076c1.427 3.81 4.284 7.978 8.044 11.738 3.849 3.849 8.13 6.758 12.055 8.193 3.884 1.419 8.017 1.594 10.941-1.331l1.908-1.908a3.418 3.418 0 00-.539-5.273zm-6.037-3.34l5.185 4.41c.024.02.05.04.076.056a2.051 2.051 0 01.349 3.18l-.142.142-8.844-6.622.862-.862a2.038 2.038 0 012.514-.303zM8.893 2.318l.022.032 3.746 5.207a2.038 2.038 0 01-.29 2.535l-.835.836-5.984-8.799.16-.16a2.051 2.051 0 013.181.349zm12.689 30.405c-3.742-1.367-7.847-4.164-11.558-7.875-3.625-3.625-6.37-7.62-7.73-11.25-1.021-2.725-1.706-6.505.828-9.038l1.446-1.447 5.984 8.8-1.01 1.009a2.043 2.043 0 00-.468 2.176c.216.886 1.21 2.724 2.21 4.078 1.475 1.993 4.15 4.749 8.525 6.559a2.045 2.045 0 002.234-.445l.99-.991 8.844 6.622-.79.79c-2.715 2.715-6.668 2.05-9.505 1.012z"/>
    </g>
    
</symbol><symbol id="user" viewBox="0 0 64 64">
    <style>
        .st0{fill:#134563}
    </style>
    <g id="Icon-User" transform="translate(278 278)">
        <path class="st0" d="M-246-222.1c-13.2 0-23.9-10.7-23.9-23.9s10.7-23.9 23.9-23.9 23.9 10.7 23.9 23.9-10.7 23.9-23.9 23.9zm0-45.2c-11.7 0-21.3 9.6-21.3 21.3 0 11.7 9.6 21.3 21.3 21.3 11.7 0 21.3-9.6 21.3-21.3 0-11.7-9.6-21.3-21.3-21.3z" id="Fill-57"/>
        <path class="st0" d="M-260-228.7l-2.4-1.1c.7-1.7 2.9-2.6 5.4-3.7 2.4-1.1 5.4-2.4 5.4-4v-2.2c-.9-.7-2.3-2.3-2.5-4.6-.7-.7-1.8-2-1.8-3.6 0-1 .4-1.8.7-2.3-.2-1.1-.6-3.3-.6-5 0-5.5 3.8-9.1 9.8-9.1 1.7 0 3.8.5 4.9 1.7 2.7.5 4.9 3.7 4.9 7.4 0 2.4-.4 4.4-.7 5.3.3.5.6 1.2.6 2 0 1.9-.9 3.1-1.8 3.7-.2 2.3-1.5 3.8-2.3 4.5v2.2c0 1.4 2.5 2.3 4.8 3.2 2.7 1 5.5 2 6.4 4.3l-2.5.9c-.4-1.2-2.8-2-4.8-2.8-3.1-1.1-6.6-2.4-6.6-5.6v-3.6l.6-.4c.1 0 1.8-1.2 1.8-3.5v-.9l.8-.3c.1-.1.9-.5.9-1.7 0-.4-.3-.8-.4-.9l-.5-.6.2-.7s.7-2.2.7-5.2c0-2.5-1.4-4.8-2.9-4.8h-.8l-.4-.7c-.3-.5-1.5-1-3.1-1-4.5 0-7.2 2.4-7.2 6.5 0 1.9.7 5 .7 5l.2.7-.5.5s-.4.5-.4 1c0 .7.9 1.6 1.3 2l.5.4v.7c0 2.2 1.9 3.4 1.9 3.4l.6.4v3.6c0 3.3-3.7 5-7 6.4-1.4.8-3.5 1.8-3.9 2.5" id="Fill-58"/>
    </g>
</symbol></svg>